<?xml version="1.0" standalone="no"?>
<!DOCTYPE svg PUBLIC "-//W3C//DTD SVG 1.1//EN" "http://www.w3.org/Graphics/SVG/1.1/DTD/svg11.dtd" >
<svg xmlns="http://www.w3.org/2000/svg" xmlns:xlink="http://www.w3.org/1999/xlink" version="1.1">
<metadata>
Created by FontForge 20161116 at Sun Feb 10 13:03:05 2013
 By Jimmy Warting
copyright missing
</metadata>
<defs>
<font id="Vegur-Regular" horiz-adv-x="490" >
  <font-face 
    font-family="Vegur"
    font-weight="400"
    font-stretch="normal"
    units-per-em="1000"
    panose-1="0 0 5 0 0 0 0 0 0 0"
    ascent="765"
    descent="-235"
    x-height="474"
    cap-height="688"
    bbox="-99 -235 950 877"
    underline-thickness="50"
    underline-position="-50"
    stemh="72"
    stemv="82"
    unicode-range="U+0020-FB02"
  />
<missing-glyph horiz-adv-x="500" 
d="M0 0v700h500v-700h-500zM250 395l170 255h-340zM280 350l170 -255v510zM80 50h340l-170 255zM50 605v-510l170 255z" />
    <glyph glyph-name="fi" unicode="fi" horiz-adv-x="505" 
d="M435 474v-474h-82v410h-178v-410h-82v410h-67v64h67v14c0 176 92 257 227 257c42 0 83 -12 103 -26l-8 -70c-28 19 -63 28 -103 28c-93 0 -137 -74 -137 -178v-25h260z" />
    <glyph glyph-name="fl" unicode="fl" horiz-adv-x="528" 
d="M376 0v671c-17 5 -43 8 -66 8c-75 0 -135 -59 -135 -159v-46h121v-64h-121v-410h-82v410h-67v64h67v35c0 148 96 236 230 236c53 0 105 -10 135 -21v-724h-82z" />
    <glyph glyph-name=".notdef" horiz-adv-x="500" 
d="M0 0v700h500v-700h-500zM250 395l170 255h-340zM280 350l170 -255v510zM80 50h340l-170 255zM50 605v-510l170 255z" />
    <glyph glyph-name="space" unicode=" " horiz-adv-x="230" 
 />
    <glyph glyph-name="exclam" unicode="!" horiz-adv-x="250" 
d="M161 170h-72l-12 518h96zM125 114c33 0 60 -27 60 -60s-27 -60 -60 -60s-60 27 -60 60s27 60 60 60z" />
    <glyph glyph-name="quotedbl" unicode="&#x22;" horiz-adv-x="320" 
d="M117 466h-54l-8 269h80zM247 466h-54l-8 269h80z" />
    <glyph glyph-name="numbersign" unicode="#" 
d="M363 398l-29 -134h79v-48h-89l-51 -236h-57l51 236h-87l-51 -236h-57l51 236h-75v48h85l29 134h-79v48h89l51 236h57l-51 -236h87l51 236h57l-51 -236h75v-48h-85zM277 264l29 134h-87l-29 -134h87z" />
    <glyph glyph-name="dollar" unicode="$" 
d="M417 597l-11 -75c-32 22 -80 38 -132 38c-58 0 -102 -29 -102 -76c0 -54 28 -77 105 -108c106 -43 145 -90 145 -175c0 -79 -57 -147 -148 -166v-81h-56v76c-56 0 -106 12 -156 40l12 77c53 -33 104 -45 151 -45c68 0 107 42 107 90c0 54 -23 80 -95 110
c-93 39 -152 79 -152 169c0 91 57 143 140 157v80h56v-76c55 -1 108 -16 136 -35z" />
    <glyph glyph-name="percent" unicode="%" horiz-adv-x="798" 
d="M239 -20h-64l384 702h64zM214 672c89 0 155 -69 155 -176s-66 -176 -155 -176c-90 0 -155 69 -155 176s65 176 155 176zM214 614c-44 0 -79 -38 -79 -118s35 -118 79 -118s79 38 79 118s-35 118 -79 118zM584 342c89 0 155 -69 155 -176s-66 -176 -155 -176
c-90 0 -155 69 -155 176s65 176 155 176zM584 284c-44 0 -79 -38 -79 -118s35 -118 79 -118s79 38 79 118s-35 118 -79 118z" />
    <glyph glyph-name="ampersand" unicode="&#x26;" horiz-adv-x="627" 
d="M490 -1l-49 57c-54 -43 -124 -66 -208 -66c-107 0 -211 66 -211 184c0 83 65 150 145 204c-48 58 -74 102 -74 155c0 94 63 165 172 165c90 0 154 -57 154 -140c0 -93 -67 -154 -138 -196l159 -183c32 47 51 103 56 157h85c-11 -89 -39 -165 -83 -223l100 -114h-108z
M259 626c-43 0 -74 -37 -74 -88c0 -44 19 -82 48 -120c72 44 97 82 97 134c0 49 -30 74 -71 74zM388 119l-174 203c-55 -36 -100 -82 -100 -139c0 -72 54 -121 131 -121c54 0 103 22 143 57z" />
    <glyph glyph-name="quotesingle" unicode="'" horiz-adv-x="190" 
d="M117 466h-54l-8 269h80z" />
    <glyph glyph-name="parenleft" unicode="(" horiz-adv-x="290" 
d="M225 760l33 -22c-74 -107 -120 -238 -120 -412s46 -305 120 -412l-33 -22c-85 90 -148 267 -148 434s63 344 148 434z" />
    <glyph glyph-name="parenright" unicode=")" horiz-adv-x="290" 
d="M32 738l33 22c85 -90 148 -267 148 -434s-63 -344 -148 -434l-33 22c74 107 120 238 120 412s-46 305 -120 412z" />
    <glyph glyph-name="asterisk" unicode="*" horiz-adv-x="468" 
d="M263 500l142 64l27 -86l-152 -32l104 -116l-72 -52l-78 134l-78 -134l-72 52l104 116l-152 32l27 86l142 -64l-16 155h90z" />
    <glyph glyph-name="plus" unicode="+" horiz-adv-x="542" 
d="M299 294h194v-48h-194v-216h-56v216h-194v48h194v216h56v-216z" />
    <glyph glyph-name="comma" unicode="," horiz-adv-x="224" 
d="M42 -142l-65 -5l74 248l98 4z" />
    <glyph glyph-name="hyphen" unicode="-" horiz-adv-x="348" 
d="M292 246h-236v48h236v-48z" />
    <glyph glyph-name="period" unicode="." horiz-adv-x="224" 
d="M101 110c33 0 60 -27 60 -60s-27 -60 -60 -60s-60 27 -60 60s27 60 60 60z" />
    <glyph glyph-name="slash" unicode="/" horiz-adv-x="393" 
d="M55 -97h-60l342 846h61z" />
    <glyph glyph-name="zero" unicode="0" 
d="M245 672c129 0 209 -115 209 -341s-80 -341 -209 -341c-131 0 -209 115 -209 341c0 223 80 341 209 341zM245 600c-83 0 -119 -107 -119 -269c0 -165 34 -269 119 -269s119 108 119 269s-32 269 -119 269z" />
    <glyph glyph-name="one" unicode="1" 
d="M361 0h-82v558l-179 -108l-2 85l198 127h65v-662z" />
    <glyph glyph-name="two" unicode="2" 
d="M82 532l-3 85c42 37 99 55 158 55c122 0 194 -74 194 -174c0 -88 -51 -162 -192 -320l-94 -106h295v-72h-399v62l144 166c135 156 154 206 154 268c0 59 -35 104 -114 104c-45 0 -105 -25 -143 -68z" />
    <glyph glyph-name="three" unicode="3" 
d="M80 554l-3 76c36 25 93 42 147 42c129 0 195 -72 195 -160c0 -92 -79 -149 -164 -164c103 -9 171 -80 171 -165c0 -122 -106 -193 -233 -193c-54 0 -104 10 -149 36l7 75c50 -27 96 -39 146 -39c81 0 137 41 137 113c0 75 -63 125 -188 125v64c98 0 181 63 181 135
c0 64 -43 101 -121 101c-41 0 -89 -19 -126 -46z" />
    <glyph glyph-name="four" unicode="4" 
d="M381 243h83v-72h-83v-170h-82v170h-259v64l232 427h109v-419zM133 243h166v154c0 40 0 99 4 179z" />
    <glyph glyph-name="five" unicode="5" 
d="M423 586h-243l-13 -191h22c164 0 246 -85 246 -201c0 -128 -101 -204 -230 -204c-54 0 -105 10 -148 36l6 78c51 -31 103 -42 146 -42c81 0 134 50 134 123c0 89 -57 138 -183 138h-80l22 335h321v-72z" />
    <glyph glyph-name="six" unicode="6" 
d="M408 672l11 -75c-163 -10 -271 -128 -286 -295c24 47 77 81 137 81c120 0 180 -99 180 -187c0 -121 -91 -206 -200 -206c-116 0 -205 84 -205 260c0 246 156 410 363 422zM245 310c-65 0 -110 -53 -110 -112c0 -77 44 -138 112 -138c62 0 114 55 114 120
c0 68 -33 130 -116 130z" />
    <glyph glyph-name="seven" unicode="7" 
d="M461 593l-279 -592h-88l275 585h-316v72h408v-65z" />
    <glyph glyph-name="eight" unicode="8" 
d="M253 672c113 0 185 -68 185 -167c0 -74 -46 -133 -116 -160c88 -41 123 -102 123 -176c0 -111 -92 -179 -204 -179c-115 0 -196 68 -196 169c0 83 50 152 131 177c-67 27 -113 85 -113 161c0 106 80 175 190 175zM251 603c-65 0 -101 -42 -101 -105
c0 -58 35 -104 100 -121c63 12 101 66 101 121c0 65 -36 105 -100 105zM246 303c-77 -19 -113 -65 -113 -135c0 -63 47 -108 109 -108c70 0 115 46 115 104c0 63 -29 114 -111 139z" />
    <glyph glyph-name="nine" unicode="9" 
d="M82 -10l-11 75c163 10 271 128 286 295c-24 -47 -77 -81 -137 -81c-120 0 -180 99 -180 187c0 121 91 206 200 206c116 0 205 -84 205 -260c0 -246 -156 -410 -363 -422zM243 602c-62 0 -114 -55 -114 -120c0 -68 33 -130 116 -130c65 0 110 53 110 112
c0 77 -44 138 -112 138z" />
    <glyph glyph-name="colon" unicode=":" horiz-adv-x="224" 
d="M101 488c33 0 60 -27 60 -60s-27 -60 -60 -60s-60 27 -60 60s27 60 60 60zM101 110c33 0 60 -27 60 -60s-27 -60 -60 -60s-60 27 -60 60s27 60 60 60z" />
    <glyph glyph-name="semicolon" unicode=";" horiz-adv-x="224" 
d="M101 488c33 0 60 -27 60 -60s-27 -60 -60 -60s-60 27 -60 60s27 60 60 60zM42 -142l-65 -5l74 248l98 4z" />
    <glyph glyph-name="less" unicode="&#x3c;" horiz-adv-x="527" 
d="M466 435l-350 -183l350 -184v-64l-401 211v72l401 210v-62z" />
    <glyph glyph-name="equal" unicode="=" horiz-adv-x="578" 
d="M522 337h-466v48h466v-48zM522 155h-466v48h466v-48z" />
    <glyph glyph-name="greater" unicode="&#x3e;" horiz-adv-x="527" 
d="M462 286v-72l-401 -210v62l350 183l-350 184v64z" />
    <glyph glyph-name="question" unicode="?" horiz-adv-x="415" 
d="M39 579l-4 74c34 27 100 45 159 45c118 0 187 -57 187 -156c0 -70 -36 -128 -110 -212c-46 -53 -57 -93 -57 -160h-89c0 59 9 117 72 189c75 86 92 127 92 171c0 60 -38 96 -110 96c-42 0 -104 -18 -140 -47zM173 110c33 0 60 -27 60 -60s-27 -60 -60 -60s-60 27 -60 60
s27 60 60 60z" />
    <glyph glyph-name="at" unicode="@" horiz-adv-x="848" 
d="M611 -33l3 -50c-67 -37 -141 -53 -225 -53c-174 0 -331 122 -331 327c0 250 191 418 405 418c195 0 324 -155 324 -318c0 -157 -94 -243 -199 -243c-49 0 -82 24 -94 69c-23 -45 -72 -73 -125 -73c-71 0 -128 58 -128 149c0 145 99 239 244 239c38 0 89 -11 113 -23
l-34 -231c-7 -54 15 -75 49 -75c60 0 116 73 116 173c0 157 -101 278 -279 278s-332 -149 -332 -346c0 -182 121 -294 282 -294c74 0 147 15 211 53zM498 237l18 129c-12 3 -25 4 -39 4c-87 0 -158 -63 -158 -170c0 -66 38 -95 74 -95c59 0 94 55 105 132z" />
    <glyph glyph-name="A" unicode="A" horiz-adv-x="596" 
d="M422 227h-249l-73 -227h-87l233 688h106l233 -688h-90zM399 299l-102 316l-101 -316h203z" />
    <glyph glyph-name="B" unicode="B" horiz-adv-x="517" 
d="M76 3v682c58 8 114 13 150 13c171 0 243 -75 243 -185c0 -83 -68 -144 -153 -161c96 -13 157 -87 157 -169c0 -120 -104 -193 -253 -193c-55 0 -102 4 -144 13zM158 373h42c104 0 180 44 180 129c0 81 -50 124 -152 124c-22 0 -38 -1 -70 -5v-248zM158 306v-240
c26 -2 55 -4 76 -4c80 0 149 40 149 111c0 78 -54 133 -178 133h-47z" />
    <glyph glyph-name="C" unicode="C" horiz-adv-x="621" 
d="M577 103l7 -74c-60 -29 -125 -39 -199 -39c-195 0 -341 129 -341 349c0 247 182 359 360 359c80 0 146 -16 188 -42l-6 -75c-53 31 -110 45 -187 45c-128 0 -263 -93 -263 -280c0 -195 126 -284 260 -284c69 0 123 12 181 41z" />
    <glyph glyph-name="D" unicode="D" horiz-adv-x="665" 
d="M76 3v683c60 7 123 12 167 12c257 0 381 -138 381 -340c0 -235 -172 -368 -407 -368c-38 0 -101 5 -141 13zM158 620v-553c22 -3 50 -5 65 -5c179 0 312 103 312 286c0 178 -99 278 -295 278c-22 0 -52 -2 -82 -6z" />
    <glyph glyph-name="E" unicode="E" horiz-adv-x="485" 
d="M442 612h-284v-229h252v-72h-252v-239h288v-72h-370v684h366v-72z" />
    <glyph glyph-name="F" unicode="F" horiz-adv-x="459" 
d="M442 612h-284v-263h252v-72h-252v-277h-82v684h366v-72z" />
    <glyph glyph-name="G" unicode="G" horiz-adv-x="653" 
d="M588 331v-302c-56 -24 -152 -39 -216 -39c-199 0 -328 125 -328 349c0 243 179 359 357 359c77 0 152 -16 194 -44l-6 -77c-53 31 -118 50 -198 50c-130 0 -255 -93 -255 -280c0 -192 101 -285 245 -285c35 0 90 7 125 21v176h-147v72h229z" />
    <glyph glyph-name="H" unicode="H" horiz-adv-x="672" 
d="M602 0h-82v311h-362v-311h-82v688h82v-305h362v305h82v-688z" />
    <glyph glyph-name="I" unicode="I" horiz-adv-x="228" 
d="M158 0h-82v688h82v-688z" />
    <glyph glyph-name="J" unicode="J" horiz-adv-x="239" 
d="M171 688v-543c0 -197 -80 -294 -237 -359l-33 71c128 54 188 120 188 286v545h82z" />
    <glyph glyph-name="K" unicode="K" horiz-adv-x="532" 
d="M251 340l289 -340h-112l-241 290l-29 -33v-257h-82v688h82v-347l285 347h101z" />
    <glyph glyph-name="L" unicode="L" horiz-adv-x="468" 
d="M158 72h291v-72h-373v688h82v-616z" />
    <glyph glyph-name="M" unicode="M" horiz-adv-x="840" 
d="M207 688l160 -430c22 -60 41 -120 56 -180c15 60 34 120 56 180l160 430h124l10 -688h-82l-6 418c-1 60 1 150 3 210c-14 -62 -41 -150 -64 -210l-158 -414h-89l-158 414c-16 40 -46 135 -65 210c2 -60 5 -170 4 -210l-6 -418h-80l10 688h125z" />
    <glyph glyph-name="N" unicode="N" horiz-adv-x="658" 
d="M590 0h-97l-245 398c-38 60 -67 108 -105 184c3 -80 3 -124 3 -184v-398h-78v688h97l241 -390c36 -60 80 -131 109 -199c-3 75 -3 139 -3 199v390h78v-688z" />
    <glyph glyph-name="O" unicode="O" horiz-adv-x="708" 
d="M354 698c188 0 318 -137 318 -354s-130 -354 -318 -354s-318 137 -318 354s130 354 318 354zM354 626c-121 0 -226 -92 -226 -282s105 -282 226 -282s226 92 226 282s-105 282 -226 282z" />
    <glyph glyph-name="P" unicode="P" horiz-adv-x="492" 
d="M76 0v683c58 11 106 15 150 15c165 0 250 -88 250 -201c0 -148 -127 -220 -273 -220c-16 0 -28 1 -45 3v-280h-82zM158 621v-271c15 -2 36 -3 48 -3c103 0 181 48 181 140c0 84 -57 139 -159 139c-22 0 -38 -1 -70 -5z" />
    <glyph glyph-name="Q" unicode="Q" horiz-adv-x="708" 
d="M508 -204l-154 194c-188 0 -318 137 -318 354s130 354 318 354s318 -137 318 -354c0 -177 -94 -301 -232 -338l136 -163zM353 61c121 0 227 93 227 283s-105 282 -226 282s-226 -92 -226 -282s104 -283 225 -283z" />
    <glyph glyph-name="R" unicode="R" horiz-adv-x="523" 
d="M76 0v686c58 8 106 12 150 12c165 0 247 -78 247 -194c0 -90 -72 -152 -154 -169c73 -15 99 -68 115 -146c13 -61 37 -144 53 -189h-95c-15 54 -32 131 -42 181c-14 73 -57 106 -145 106h-47v-287h-82zM158 354h35c108 0 191 52 191 142c0 82 -54 130 -156 130
c-22 0 -38 -1 -70 -5v-267z" />
    <glyph glyph-name="S" unicode="S" horiz-adv-x="496" 
d="M46 31l10 78c50 -33 116 -47 163 -47c81 0 137 50 137 114c0 59 -35 97 -115 128c-99 38 -168 93 -168 195c0 123 92 199 225 199c48 0 108 -16 137 -35l-10 -78c-30 22 -82 41 -134 41c-71 0 -131 -47 -131 -112s40 -106 121 -136c113 -42 165 -98 165 -189
c0 -114 -92 -199 -234 -199c-57 0 -118 13 -166 41z" />
    <glyph glyph-name="T" unicode="T" horiz-adv-x="497" 
d="M499 612h-208v-612h-82v612h-208v72h498v-72z" />
    <glyph glyph-name="U" unicode="U" horiz-adv-x="637" 
d="M574 688v-449c0 -158 -104 -253 -258 -253c-152 0 -247 101 -247 243v459h82v-447c0 -114 73 -181 173 -181c98 0 168 65 168 171v457h82z" />
    <glyph glyph-name="V" unicode="V" horiz-adv-x="584" 
d="M349 0h-106l-233 688h90l198 -611l197 611h87z" />
    <glyph glyph-name="W" unicode="W" horiz-adv-x="859" 
d="M104 688l106 -430c16 -67 27 -120 38 -180c9 60 22 120 36 180l104 426h95l104 -426c15 -60 26 -120 34 -181c10 61 24 121 39 181l108 430h89l-188 -688h-104l-98 418c-14 60 -26 120 -35 180c-9 -60 -20 -120 -34 -180l-98 -418h-105l-185 688h94z" />
    <glyph glyph-name="X" unicode="X" horiz-adv-x="531" 
d="M319 345l208 -345h-102l-158 280l-159 -280h-93l205 342l-198 346h100l150 -283l164 283h93z" />
    <glyph glyph-name="Y" unicode="Y" horiz-adv-x="530" 
d="M317 296v-296h-82v296l-227 392h101l170 -321l172 321h93z" />
    <glyph glyph-name="Z" unicode="Z" horiz-adv-x="532" 
d="M503 616l-364 -544h369v-72h-472v65l364 547h-335v72h438v-68z" />
    <glyph glyph-name="bracketleft" unicode="[" horiz-adv-x="350" 
d="M272 701h-116v-750h116v-48h-172v846h172v-48z" />
    <glyph glyph-name="backslash" unicode="\" horiz-adv-x="392" 
d="M397 -97h-60l-342 846h59z" />
    <glyph glyph-name="bracketright" unicode="]" horiz-adv-x="350" 
d="M250 -97h-172v48h116v750h-116v48h172v-846z" />
    <glyph glyph-name="asciicircum" unicode="^" horiz-adv-x="466" 
d="M412 225h-64l-114 256l-117 -256h-63l151 316h59z" />
    <glyph glyph-name="underscore" unicode="_" horiz-adv-x="500" 
d="M500 -86h-500v48h500v-48z" />
    <glyph glyph-name="grave" unicode="`" horiz-adv-x="500" 
d="M232 651l83 -115l-68 4l-106 115z" />
    <glyph glyph-name="a" unicode="a" horiz-adv-x="471" 
d="M92 384l-5 68c39 22 94 36 148 36c121 0 170 -65 170 -171v-317h-72l-9 71c-28 -52 -74 -81 -137 -81c-72 0 -140 46 -140 139c0 109 94 164 209 164c23 0 49 -2 67 -6v37c0 64 -38 96 -108 96c-36 0 -83 -12 -123 -36zM323 185v41c-16 4 -38 6 -59 6
c-77 0 -129 -40 -129 -98c0 -49 32 -80 78 -80c57 0 110 52 110 131z" />
    <glyph glyph-name="b" unicode="b" horiz-adv-x="543" 
d="M152 735v-340c29 56 81 93 148 93c122 0 205 -98 205 -243c0 -150 -91 -255 -218 -255c-68 0 -122 40 -138 91l-5 -81h-74v735h82zM152 270v-52c0 -90 56 -159 128 -159c77 0 135 70 135 182c0 96 -46 176 -132 176c-66 0 -131 -64 -131 -147z" />
    <glyph glyph-name="c" unicode="c" horiz-adv-x="430" 
d="M389 80l7 -67c-33 -13 -77 -23 -126 -23c-130 0 -232 77 -232 243c0 167 117 255 246 255c48 0 90 -9 117 -22l-7 -72c-29 16 -65 26 -107 26c-89 0 -159 -58 -159 -181c0 -119 59 -183 160 -183c34 0 71 9 101 24z" />
    <glyph glyph-name="d" unicode="d" horiz-adv-x="543" 
d="M473 735v-735h-74l-6 87c-29 -58 -81 -97 -150 -97c-122 0 -205 98 -205 243c0 150 91 255 218 255c65 0 117 -36 135 -84v331h82zM391 208v52c0 90 -56 159 -128 159c-77 0 -135 -70 -135 -182c0 -96 46 -176 132 -176c66 0 131 64 131 147z" />
    <glyph glyph-name="e" unicode="e" horiz-adv-x="470" 
d="M396 91l4 -68c-36 -20 -89 -33 -145 -33c-132 0 -217 80 -217 236c0 160 85 262 214 262c124 0 175 -106 175 -236c0 -15 -1 -25 -4 -41h-299c5 -108 55 -155 151 -155c42 0 87 14 121 35zM126 278h218c0 78 -28 140 -101 140c-66 0 -110 -56 -117 -140z" />
    <glyph glyph-name="f" unicode="f" horiz-adv-x="308" 
d="M93 474v45c0 147 75 226 194 226c27 0 51 -4 67 -10l-5 -68c-16 6 -33 10 -61 10c-59 0 -113 -45 -113 -147v-56h121v-64h-121v-410h-82v410h-67v64h67z" />
    <glyph glyph-name="g" unicode="g" horiz-adv-x="543" 
d="M473 478v-431c0 -179 -103 -262 -260 -262c-45 0 -95 11 -137 38l5 74c42 -28 96 -44 138 -44c105 0 172 59 172 187v43c-29 -56 -81 -93 -148 -93c-122 0 -205 98 -205 243c0 150 91 255 218 255c68 0 122 -40 138 -91l5 81h74zM391 208v52c0 90 -56 159 -128 159
c-77 0 -135 -70 -135 -182c0 -96 46 -176 132 -176c66 0 131 64 131 147z" />
    <glyph glyph-name="h" unicode="h" horiz-adv-x="523" 
d="M152 735v-342c28 66 89 95 146 95c103 0 159 -71 159 -169v-319h-82v295c0 68 -31 121 -106 121c-64 0 -117 -66 -117 -149v-267h-82v735h82z" />
    <glyph glyph-name="i" unicode="i" horiz-adv-x="222" 
d="M111 653c28 0 51 -23 51 -51s-23 -51 -51 -51s-51 23 -51 51s23 51 51 51zM70 0v478h82v-478h-82z" />
    <glyph glyph-name="j" unicode="j" horiz-adv-x="238" 
d="M127 653c28 0 51 -23 51 -51s-23 -51 -51 -51s-51 23 -51 51s23 51 51 51zM168 478v-351c0 -192 -73 -276 -186 -340l-43 63c101 59 147 124 147 272v356h82z" />
    <glyph glyph-name="k" unicode="k" horiz-adv-x="453" 
d="M450 0h-112l-158 210l-28 -29v-181h-82v735h82v-477l193 220h102l-205 -221z" />
    <glyph glyph-name="l" unicode="l" horiz-adv-x="222" 
d="M152 0h-82v735h82v-735z" />
    <glyph glyph-name="m" unicode="m" horiz-adv-x="788" 
d="M144 478l6 -88c25 67 80 98 139 98c75 0 120 -41 138 -101c34 69 85 101 147 101c101 0 148 -74 148 -170v-318h-82v294c0 71 -25 122 -95 122c-61 0 -108 -66 -108 -149v-267h-82v294c0 71 -25 122 -95 122c-61 0 -108 -66 -108 -149v-267h-82v478h74z" />
    <glyph glyph-name="n" unicode="n" horiz-adv-x="523" 
d="M144 478l6 -90c27 70 90 100 148 100c103 0 159 -71 159 -169v-319h-82v295c0 68 -31 121 -106 121c-64 0 -117 -66 -117 -149v-267h-82v478h74z" />
    <glyph glyph-name="o" unicode="o" horiz-adv-x="520" 
d="M260 488c136 0 222 -100 222 -249s-86 -249 -222 -249s-222 100 -222 249s86 249 222 249zM260 422c-87 0 -132 -80 -132 -183s45 -183 132 -183s132 80 132 183s-45 183 -132 183z" />
    <glyph glyph-name="p" unicode="p" horiz-adv-x="543" 
d="M144 478l6 -87c29 58 81 97 150 97c122 0 205 -98 205 -243c0 -150 -91 -255 -218 -255c-65 0 -117 36 -135 84v-279h-82v683h74zM152 270v-52c0 -90 56 -159 128 -159c77 0 135 70 135 182c0 96 -46 176 -132 176c-66 0 -131 -64 -131 -147z" />
    <glyph glyph-name="q" unicode="q" horiz-adv-x="543" 
d="M473 478v-683h-82v288c-29 -56 -81 -93 -148 -93c-122 0 -205 98 -205 243c0 150 91 255 218 255c68 0 122 -40 138 -91l5 81h74zM391 208v52c0 90 -56 159 -128 159c-77 0 -135 -70 -135 -182c0 -96 46 -176 132 -176c66 0 131 64 131 147z" />
    <glyph glyph-name="r" unicode="r" horiz-adv-x="319" 
d="M144 478l5 -72c14 46 54 80 103 80c18 0 34 -2 48 -5l-4 -74c-15 4 -29 6 -47 6c-59 0 -97 -52 -97 -145v-268h-82v478h74z" />
    <glyph glyph-name="s" unicode="s" horiz-adv-x="369" 
d="M33 12l5 69c44 -17 76 -23 112 -23c56 0 101 26 101 70c0 38 -24 57 -75 76c-82 31 -127 66 -127 142c0 100 82 142 168 142c38 0 82 -10 107 -23l-5 -70c-25 15 -63 25 -106 25c-46 0 -80 -27 -80 -65c0 -47 30 -67 70 -80c91 -29 131 -69 131 -141
c0 -92 -83 -144 -185 -144c-42 0 -78 7 -116 22z" />
    <glyph glyph-name="t" unicode="t" horiz-adv-x="335" 
d="M182 474h129v-64h-129v-272c0 -56 29 -81 72 -81c18 0 36 2 53 9l4 -61c-18 -9 -47 -15 -75 -15c-80 0 -136 38 -136 142v278h-75v64h75v126h82v-126z" />
    <glyph glyph-name="u" unicode="u" horiz-adv-x="523" 
d="M453 478v-478h-74l-6 90c-27 -70 -90 -100 -148 -100c-103 0 -159 71 -159 169v319h82v-295c0 -68 31 -121 106 -121c64 0 117 66 117 149v267h82z" />
    <glyph glyph-name="v" unicode="v" horiz-adv-x="455" 
d="M275 0h-91l-176 478h94l130 -400l131 400h89z" />
    <glyph glyph-name="w" unicode="w" horiz-adv-x="655" 
d="M512 0h-92l-46 178c-16 60 -31 120 -44 197c-11 -77 -26 -137 -42 -197l-47 -178h-93l-140 478h92l58 -220c16 -60 28 -120 37 -188c9 68 23 128 39 188l57 216h84l56 -216c16 -60 29 -120 38 -188c9 68 23 128 39 188l58 220h86z" />
    <glyph glyph-name="x" unicode="x" horiz-adv-x="426" 
d="M250 238l154 -238h-95l-110 180l-109 -180h-89l155 238l-151 240h94l109 -183l111 183h89z" />
    <glyph glyph-name="y" unicode="y" horiz-adv-x="455" 
d="M452 478l-177 -478c-40 -109 -115 -188 -210 -215l-29 70c73 26 127 69 151 137l-179 486h94l130 -400l131 400h89z" />
    <glyph glyph-name="z" unicode="z" horiz-adv-x="396" 
d="M369 410l-250 -346h251v-64h-344v61l247 349h-231v64h327v-64z" />
    <glyph glyph-name="braceleft" unicode="{" horiz-adv-x="351" 
d="M274 754v-48c-69 0 -94 -23 -87 -98l17 -185c5 -55 -20 -86 -65 -94c49 -9 70 -42 65 -100l-16 -185c-6 -75 17 -98 86 -98v-48c-107 0 -151 43 -141 168l13 151c5 66 -14 85 -71 85v48c57 0 76 19 71 85l-13 151c-10 125 34 168 141 168z" />
    <glyph glyph-name="bar" unicode="|" horiz-adv-x="296" 
d="M176 -235h-56v1000h56v-1000z" />
    <glyph glyph-name="braceright" unicode="}" horiz-adv-x="351" 
d="M77 706v48c107 0 151 -43 141 -168l-13 -151c-5 -66 14 -85 71 -85v-48c-57 0 -76 -19 -71 -85l13 -151c10 -125 -34 -168 -141 -168v48c69 0 92 23 86 98l-16 185c-5 55 19 86 65 94c-49 9 -70 42 -65 100l16 185c6 75 -17 98 -86 98z" />
    <glyph glyph-name="asciitilde" unicode="~" horiz-adv-x="554" 
d="M455 333h51c0 -108 -41 -146 -107 -146c-36 0 -70 12 -135 47c-63 34 -88 42 -108 42c-42 0 -57 -25 -57 -93h-51c0 108 41 146 107 146c36 0 70 -12 135 -47c63 -35 88 -42 108 -42c42 0 57 25 57 93z" />
    <glyph glyph-name="exclamdown" unicode="&#xa1;" horiz-adv-x="250" 
d="M125 488c33 0 60 -27 60 -60s-27 -60 -60 -60s-60 27 -60 60s27 60 60 60zM173 -206h-96l12 518h72z" />
    <glyph glyph-name="sterling" unicode="&#xa3;" horiz-adv-x="480" 
d="M452 645l-5 -75c-29 20 -62 30 -103 30c-80 0 -126 -50 -126 -143c0 -26 5 -62 15 -98h170v-56h-156c5 -15 10 -48 10 -67c0 -88 -31 -131 -93 -163h277v-72h-377v64c47 25 114 61 114 169c0 24 -3 49 -12 69h-107v56h93c-8 33 -14 75 -14 94c0 141 82 219 206 219
c48 0 85 -13 108 -27z" />
    <glyph glyph-name="yen" unicode="&#xa5;" 
d="M318 376h106v-54h-137v-61h137v-54h-137v-207h-82v207h-137v54h137v61h-137v54h104l-144 279h102l118 -275l125 275h90z" />
    <glyph glyph-name="dieresis" unicode="&#xa8;" horiz-adv-x="500" 
d="M172 627c25 0 46 -21 46 -46s-21 -46 -46 -46s-46 21 -46 46s21 46 46 46zM328 627c25 0 46 -21 46 -46s-21 -46 -46 -46s-46 21 -46 46s21 46 46 46z" />
    <glyph glyph-name="guillemotleft" unicode="&#xab;" horiz-adv-x="436" 
d="M117 252l119 -169h-72l-119 169l119 169h72zM267 252l119 -169h-72l-119 169l119 169h72z" />
    <glyph glyph-name="acute" unicode="&#xb4;" horiz-adv-x="500" 
d="M231 540l-68 -4l83 115l91 4z" />
    <glyph glyph-name="cedilla" unicode="&#xb8;" horiz-adv-x="500" 
d="M283 10l-20 -36c43 -7 69 -29 69 -67c0 -50 -40 -75 -109 -75c-17 0 -38 4 -54 13l5 39c16 -9 36 -14 58 -14c26 0 42 14 42 34c0 24 -17 38 -73 38l37 68h45z" />
    <glyph glyph-name="guillemotright" unicode="&#xbb;" horiz-adv-x="436" 
d="M241 252l-119 -169h-72l119 169l-119 169h72zM391 252l-119 -169h-72l119 169l-119 169h72z" />
    <glyph glyph-name="questiondown" unicode="&#xbf;" horiz-adv-x="404" 
d="M242 488c33 0 60 -27 60 -60s-27 -60 -60 -60s-60 27 -60 60s27 60 60 60zM201 312h82c2 -15 2 -22 2 -36c0 -53 -21 -100 -67 -153c-75 -86 -92 -127 -92 -171c0 -60 45 -96 117 -96c42 0 97 18 133 47l4 -74c-34 -27 -93 -45 -152 -45c-118 0 -194 65 -194 164
c0 70 36 120 110 204c46 53 57 93 57 160z" />
    <glyph glyph-name="Agrave" unicode="&#xc0;" horiz-adv-x="596" 
d="M254 853l83 -115l-68 4l-106 115zM173 227l-73 -227h-87l233 688h106l233 -688h-90l-73 227h-249zM297 615l-101 -316h203z" />
    <glyph glyph-name="Aacute" unicode="&#xc1;" horiz-adv-x="596" 
d="M328 742l-68 -4l83 115l91 4zM173 227l-73 -227h-87l233 688h106l233 -688h-90l-73 227h-249zM297 615l-101 -316h203z" />
    <glyph glyph-name="Acircumflex" unicode="&#xc2;" horiz-adv-x="596" 
d="M416 741h-64l-53 75l-53 -75h-63l87 116h59zM173 227l-73 -227h-87l233 688h106l233 -688h-90l-73 227h-249zM297 615l-101 -316h203z" />
    <glyph glyph-name="Atilde" unicode="&#xc3;" horiz-adv-x="596" 
d="M409 833v-9c0 -44 -23 -66 -57 -66c-19 0 -39 6 -61 12c-21 7 -35 11 -44 11c-14 0 -20 -11 -20 -24h-38v9c0 44 23 66 57 66c19 0 39 -6 61 -13c21 -6 35 -10 44 -10c14 0 20 11 20 24h38zM173 227l-73 -227h-87l233 688h106l233 -688h-90l-73 227h-249zM297 615
l-101 -316h203z" />
    <glyph glyph-name="Adieresis" unicode="&#xc4;" horiz-adv-x="596" 
d="M221 829c25 0 46 -21 46 -46s-21 -46 -46 -46s-46 21 -46 46s21 46 46 46zM377 829c25 0 46 -21 46 -46s-21 -46 -46 -46s-46 21 -46 46s21 46 46 46zM173 227l-73 -227h-87l233 688h106l233 -688h-90l-73 227h-249zM297 615l-101 -316h203z" />
    <glyph glyph-name="Aring" unicode="&#xc5;" horiz-adv-x="596" 
d="M299 877c45 0 78 -28 78 -73s-33 -73 -78 -73s-78 28 -78 73s33 73 78 73zM299 846c-19 0 -34 -15 -34 -42c0 -28 15 -42 34 -42s34 14 34 42c0 27 -15 42 -34 42zM173 227l-73 -227h-87l233 688h106l233 -688h-90l-73 227h-249zM297 615l-101 -316h203z" />
    <glyph glyph-name="AE" unicode="&#xc6;" horiz-adv-x="852" 
d="M813 72v-72h-356l-28 227h-224l-107 -227h-97l339 684h433v-72h-306l28 -229h257v-72h-249l29 -239h281zM421 299l-38 308l-144 -308h182z" />
    <glyph glyph-name="Ccedilla" unicode="&#xc7;" horiz-adv-x="621" 
d="M592 656l-6 -75c-53 31 -110 45 -187 45c-128 0 -263 -93 -263 -280c0 -195 126 -284 260 -284c69 0 123 12 181 41l7 -74c-54 -26 -112 -37 -177 -39l-9 -16c43 -7 69 -29 69 -67c0 -50 -40 -75 -109 -75c-17 0 -38 4 -54 13l5 39c16 -9 36 -14 58 -14c26 0 42 14 42 34
c0 24 -17 38 -73 38l26 49c-183 9 -318 137 -318 348c0 247 182 359 360 359c80 0 146 -16 188 -42z" />
    <glyph glyph-name="Egrave" unicode="&#xc8;" horiz-adv-x="485" 
d="M218 853l83 -115l-68 4l-106 115zM442 612h-284v-229h252v-72h-252v-239h288v-72h-370v684h366v-72z" />
    <glyph glyph-name="Eacute" unicode="&#xc9;" horiz-adv-x="485" 
d="M292 742l-68 -4l83 115l91 4zM158 612v-229h252v-72h-252v-239h288v-72h-370v684h366v-72h-284z" />
    <glyph glyph-name="Ecircumflex" unicode="&#xca;" horiz-adv-x="485" 
d="M380 741h-64l-53 75l-53 -75h-63l87 116h59zM158 612v-229h252v-72h-252v-239h288v-72h-370v684h366v-72h-284z" />
    <glyph glyph-name="Edieresis" unicode="&#xcb;" horiz-adv-x="485" 
d="M185 829c25 0 46 -21 46 -46s-21 -46 -46 -46s-46 21 -46 46s21 46 46 46zM341 829c25 0 46 -21 46 -46s-21 -46 -46 -46s-46 21 -46 46s21 46 46 46zM442 612h-284v-229h252v-72h-252v-239h288v-72h-370v684h366v-72z" />
    <glyph glyph-name="Igrave" unicode="&#xcc;" horiz-adv-x="228" 
d="M69 861l83 -115l-68 4l-106 115zM76 0v688h82v-688h-82z" />
    <glyph glyph-name="Iacute" unicode="&#xcd;" horiz-adv-x="228" 
d="M143 750l-68 -4l83 115l91 4zM76 0v688h82v-688h-82z" />
    <glyph glyph-name="Icircumflex" unicode="&#xce;" horiz-adv-x="228" 
d="M230 749h-64l-53 75l-53 -75h-63l87 116h59zM76 0v688h82v-688h-82z" />
    <glyph glyph-name="Idieresis" unicode="&#xcf;" horiz-adv-x="228" 
d="M36 837c25 0 46 -21 46 -46s-21 -46 -46 -46s-46 21 -46 46s21 46 46 46zM192 837c25 0 46 -21 46 -46s-21 -46 -46 -46s-46 21 -46 46s21 46 46 46zM76 0v688h82v-688h-82z" />
    <glyph glyph-name="Ntilde" unicode="&#xd1;" horiz-adv-x="658" 
d="M439 833v-9c0 -44 -23 -66 -57 -66c-19 0 -39 6 -61 12c-21 7 -35 11 -44 11c-14 0 -20 -11 -20 -24h-38v9c0 44 23 66 57 66c19 0 39 -6 61 -13c21 -6 35 -10 44 -10c14 0 20 11 20 24h38zM493 0l-245 398c-38 60 -67 108 -105 184c3 -80 3 -124 3 -184v-398h-78v688h97
l241 -390c36 -60 80 -131 109 -199c-3 75 -3 139 -3 199v390h78v-688h-97z" />
    <glyph glyph-name="Ograve" unicode="&#xd2;" horiz-adv-x="708" 
d="M309 853l83 -115l-68 4l-106 115zM354 698c188 0 318 -137 318 -354s-130 -354 -318 -354s-318 137 -318 354s130 354 318 354zM354 626c-121 0 -226 -92 -226 -282s105 -282 226 -282s226 92 226 282s-105 282 -226 282z" />
    <glyph glyph-name="Oacute" unicode="&#xd3;" horiz-adv-x="708" 
d="M383 742l-68 -4l83 115l91 4zM354 698c188 0 318 -137 318 -354s-130 -354 -318 -354s-318 137 -318 354s130 354 318 354zM354 626c-121 0 -226 -92 -226 -282s105 -282 226 -282s226 92 226 282s-105 282 -226 282z" />
    <glyph glyph-name="Ocircumflex" unicode="&#xd4;" horiz-adv-x="708" 
d="M471 741h-64l-53 75l-53 -75h-63l87 116h59zM354 698c188 0 318 -137 318 -354s-130 -354 -318 -354s-318 137 -318 354s130 354 318 354zM354 626c-121 0 -226 -92 -226 -282s105 -282 226 -282s226 92 226 282s-105 282 -226 282z" />
    <glyph glyph-name="Otilde" unicode="&#xd5;" horiz-adv-x="708" 
d="M464 833v-9c0 -44 -23 -66 -57 -66c-19 0 -39 6 -61 12c-21 7 -35 11 -44 11c-14 0 -20 -11 -20 -24h-38v9c0 44 23 66 57 66c19 0 39 -6 61 -13c21 -6 35 -10 44 -10c14 0 20 11 20 24h38zM354 698c188 0 318 -137 318 -354s-130 -354 -318 -354s-318 137 -318 354
s130 354 318 354zM354 626c-121 0 -226 -92 -226 -282s105 -282 226 -282s226 92 226 282s-105 282 -226 282z" />
    <glyph glyph-name="Odieresis" unicode="&#xd6;" horiz-adv-x="708" 
d="M276 829c25 0 46 -21 46 -46s-21 -46 -46 -46s-46 21 -46 46s21 46 46 46zM432 829c25 0 46 -21 46 -46s-21 -46 -46 -46s-46 21 -46 46s21 46 46 46zM354 698c188 0 318 -137 318 -354s-130 -354 -318 -354s-318 137 -318 354s130 354 318 354zM354 626
c-121 0 -226 -92 -226 -282s105 -282 226 -282s226 92 226 282s-105 282 -226 282z" />
    <glyph glyph-name="Oslash" unicode="&#xd8;" horiz-adv-x="708" 
d="M661 648l-60 -67c45 -60 71 -141 71 -237c0 -217 -130 -354 -318 -354c-83 0 -155 27 -209 76l-56 -63l-42 40l58 66c-44 59 -69 140 -69 235c0 217 130 354 318 354c83 0 154 -26 208 -74l57 64zM165 176l342 386c-41 43 -95 64 -153 64c-121 0 -226 -92 -226 -282
c0 -69 14 -125 37 -168zM542 514l-343 -386c41 -44 96 -66 155 -66c121 0 226 92 226 282c0 70 -14 126 -38 170z" />
    <glyph glyph-name="Ugrave" unicode="&#xd9;" horiz-adv-x="637" 
d="M276 853l83 -115l-68 4l-106 115zM574 688v-449c0 -158 -104 -253 -258 -253c-152 0 -247 101 -247 243v459h82v-447c0 -114 73 -181 173 -181c98 0 168 65 168 171v457h82z" />
    <glyph glyph-name="Uacute" unicode="&#xda;" horiz-adv-x="637" 
d="M350 742l-68 -4l83 115l91 4zM574 688v-449c0 -158 -104 -253 -258 -253c-152 0 -247 101 -247 243v459h82v-447c0 -114 73 -181 173 -181c98 0 168 65 168 171v457h82z" />
    <glyph glyph-name="Ucircumflex" unicode="&#xdb;" horiz-adv-x="637" 
d="M438 741h-64l-53 75l-53 -75h-63l87 116h59zM574 688v-449c0 -158 -104 -253 -258 -253c-152 0 -247 101 -247 243v459h82v-447c0 -114 73 -181 173 -181c98 0 168 65 168 171v457h82z" />
    <glyph glyph-name="Udieresis" unicode="&#xdc;" horiz-adv-x="637" 
d="M243 829c25 0 46 -21 46 -46s-21 -46 -46 -46s-46 21 -46 46s21 46 46 46zM399 829c25 0 46 -21 46 -46s-21 -46 -46 -46s-46 21 -46 46s21 46 46 46zM574 688v-449c0 -158 -104 -253 -258 -253c-152 0 -247 101 -247 243v459h82v-447c0 -114 73 -181 173 -181
c98 0 168 65 168 171v457h82z" />
    <glyph glyph-name="Yacute" unicode="&#xdd;" horiz-adv-x="530" 
d="M305 742l-68 -4l83 115l91 4zM317 0h-82v296l-227 392h101l170 -321l172 321h93l-227 -392v-296z" />
    <glyph glyph-name="germandbls" unicode="&#xdf;" horiz-adv-x="569" 
d="M222 4l5 67c29 -9 60 -13 82 -13c65 0 126 46 126 125c0 91 -71 143 -172 144v67c73 0 159 53 159 153c0 84 -46 132 -127 132c-61 0 -115 -50 -115 -120v-559h-82v410h-59v64h59v72c0 119 88 199 202 199c127 0 212 -76 212 -187c0 -93 -69 -158 -151 -179
c107 -20 164 -101 164 -190c0 -117 -92 -197 -221 -197c-25 0 -57 4 -82 12z" />
    <glyph glyph-name="agrave" unicode="&#xe0;" horiz-adv-x="471" 
d="M200 651l83 -115l-68 4l-106 115zM92 384l-5 68c39 22 94 36 148 36c121 0 170 -65 170 -171v-317h-72l-9 71c-28 -52 -74 -81 -137 -81c-72 0 -140 46 -140 139c0 109 94 164 209 164c23 0 49 -2 67 -6v37c0 64 -38 96 -108 96c-36 0 -83 -12 -123 -36zM323 185v41
c-16 4 -38 6 -59 6c-77 0 -129 -40 -129 -98c0 -49 32 -80 78 -80c57 0 110 52 110 131z" />
    <glyph glyph-name="aacute" unicode="&#xe1;" horiz-adv-x="471" 
d="M274 540l-68 -4l83 115l91 4zM92 384l-5 68c39 22 94 36 148 36c121 0 170 -65 170 -171v-317h-72l-9 71c-28 -52 -74 -81 -137 -81c-72 0 -140 46 -140 139c0 109 94 164 209 164c23 0 49 -2 67 -6v37c0 64 -38 96 -108 96c-36 0 -83 -12 -123 -36zM323 185v41
c-16 4 -38 6 -59 6c-77 0 -129 -40 -129 -98c0 -49 32 -80 78 -80c57 0 110 52 110 131z" />
    <glyph glyph-name="acircumflex" unicode="&#xe2;" horiz-adv-x="471" 
d="M361 539h-64l-53 75l-53 -75h-63l87 116h59zM92 384l-5 68c39 22 94 36 148 36c121 0 170 -65 170 -171v-317h-72l-9 71c-28 -52 -74 -81 -137 -81c-72 0 -140 46 -140 139c0 109 94 164 209 164c23 0 49 -2 67 -6v37c0 64 -38 96 -108 96c-36 0 -83 -12 -123 -36z
M323 185v41c-16 4 -38 6 -59 6c-77 0 -129 -40 -129 -98c0 -49 32 -80 78 -80c57 0 110 52 110 131z" />
    <glyph glyph-name="atilde" unicode="&#xe3;" horiz-adv-x="471" 
d="M355 631v-9c0 -44 -23 -66 -57 -66c-19 0 -39 6 -61 12c-21 7 -35 11 -44 11c-14 0 -20 -11 -20 -24h-38v9c0 44 23 66 57 66c19 0 39 -6 61 -13c21 -6 35 -10 44 -10c14 0 20 11 20 24h38zM92 384l-5 68c39 22 94 36 148 36c121 0 170 -65 170 -171v-317h-72l-9 71
c-28 -52 -74 -81 -137 -81c-72 0 -140 46 -140 139c0 109 94 164 209 164c23 0 49 -2 67 -6v37c0 64 -38 96 -108 96c-36 0 -83 -12 -123 -36zM323 185v41c-16 4 -38 6 -59 6c-77 0 -129 -40 -129 -98c0 -49 32 -80 78 -80c57 0 110 52 110 131z" />
    <glyph glyph-name="adieresis" unicode="&#xe4;" horiz-adv-x="471" 
d="M167 627c25 0 46 -21 46 -46s-21 -46 -46 -46s-46 21 -46 46s21 46 46 46zM323 627c25 0 46 -21 46 -46s-21 -46 -46 -46s-46 21 -46 46s21 46 46 46zM92 384l-5 68c39 22 94 36 148 36c121 0 170 -65 170 -171v-317h-72l-9 71c-28 -52 -74 -81 -137 -81
c-72 0 -140 46 -140 139c0 109 94 164 209 164c23 0 49 -2 67 -6v37c0 64 -38 96 -108 96c-36 0 -83 -12 -123 -36zM323 185v41c-16 4 -38 6 -59 6c-77 0 -129 -40 -129 -98c0 -49 32 -80 78 -80c57 0 110 52 110 131z" />
    <glyph glyph-name="aring" unicode="&#xe5;" horiz-adv-x="471" 
d="M245 675c45 0 78 -28 78 -73s-33 -73 -78 -73s-78 28 -78 73s33 73 78 73zM245 644c-19 0 -34 -15 -34 -42c0 -28 15 -42 34 -42s34 14 34 42c0 27 -15 42 -34 42zM92 384l-5 68c39 22 94 36 148 36c121 0 170 -65 170 -171v-317h-72l-9 71c-28 -52 -74 -81 -137 -81
c-72 0 -140 46 -140 139c0 109 94 164 209 164c23 0 49 -2 67 -6v37c0 64 -38 96 -108 96c-36 0 -83 -12 -123 -36zM323 185v41c-16 4 -38 6 -59 6c-77 0 -129 -40 -129 -98c0 -49 32 -80 78 -80c57 0 110 52 110 131z" />
    <glyph glyph-name="ae" unicode="&#xe6;" horiz-adv-x="753" 
d="M92 383l-5 69c39 22 93 36 147 36c79 0 127 -28 151 -76c35 48 86 76 152 76c124 0 173 -105 173 -235c0 -15 -1 -25 -4 -41h-289c5 -108 51 -156 143 -156c40 0 85 14 119 35l4 -68c-36 -20 -87 -33 -143 -33c-88 0 -152 35 -184 108c-26 -72 -96 -108 -161 -108
c-78 0 -148 44 -148 137c0 109 100 155 209 155c23 0 56 -2 75 -5v47c0 64 -47 96 -117 96c-36 0 -82 -13 -122 -37zM419 278h208c0 78 -26 140 -99 140c-66 0 -102 -56 -109 -140zM331 195v21c-18 3 -46 5 -67 5c-71 0 -129 -26 -129 -84c0 -49 32 -83 78 -83
c47 0 118 38 118 141z" />
    <glyph glyph-name="ccedilla" unicode="&#xe7;" horiz-adv-x="430" 
d="M389 80l7 -67c-33 -13 -77 -23 -126 -23h-4l-9 -16c43 -7 69 -29 69 -67c0 -50 -40 -75 -109 -75c-17 0 -38 4 -54 13l5 39c16 -9 36 -14 58 -14c26 0 42 14 42 34c0 24 -17 38 -73 38l28 52c-107 16 -185 94 -185 239c0 167 117 255 246 255c48 0 90 -9 117 -22l-7 -72
c-29 16 -65 26 -107 26c-89 0 -159 -58 -159 -181c0 -119 59 -183 160 -183c34 0 71 9 101 24z" />
    <glyph glyph-name="egrave" unicode="&#xe8;" horiz-adv-x="470" 
d="M196 651l83 -115l-68 4l-106 115zM396 91l4 -68c-36 -20 -89 -33 -145 -33c-132 0 -217 80 -217 236c0 160 85 262 214 262c124 0 175 -106 175 -236c0 -15 -1 -25 -4 -41h-299c5 -108 55 -155 151 -155c42 0 87 14 121 35zM126 278h218c0 78 -28 140 -101 140
c-66 0 -110 -56 -117 -140z" />
    <glyph glyph-name="eacute" unicode="&#xe9;" horiz-adv-x="470" 
d="M270 540l-68 -4l83 115l91 4zM396 91l4 -68c-36 -20 -89 -33 -145 -33c-132 0 -217 80 -217 236c0 160 85 262 214 262c124 0 175 -106 175 -236c0 -15 -1 -25 -4 -41h-299c5 -108 55 -155 151 -155c42 0 87 14 121 35zM126 278h218c0 78 -28 140 -101 140
c-66 0 -110 -56 -117 -140z" />
    <glyph glyph-name="ecircumflex" unicode="&#xea;" horiz-adv-x="470" 
d="M357 539h-64l-53 75l-53 -75h-63l87 116h59zM396 91l4 -68c-36 -20 -89 -33 -145 -33c-132 0 -217 80 -217 236c0 160 85 262 214 262c124 0 175 -106 175 -236c0 -15 -1 -25 -4 -41h-299c5 -108 55 -155 151 -155c42 0 87 14 121 35zM126 278h218c0 78 -28 140 -101 140
c-66 0 -110 -56 -117 -140z" />
    <glyph glyph-name="edieresis" unicode="&#xeb;" horiz-adv-x="470" 
d="M163 627c25 0 46 -21 46 -46s-21 -46 -46 -46s-46 21 -46 46s21 46 46 46zM319 627c25 0 46 -21 46 -46s-21 -46 -46 -46s-46 21 -46 46s21 46 46 46zM396 91l4 -68c-36 -20 -89 -33 -145 -33c-132 0 -217 80 -217 236c0 160 85 262 214 262c124 0 175 -106 175 -236
c0 -15 -1 -25 -4 -41h-299c5 -108 55 -155 151 -155c42 0 87 14 121 35zM126 278h218c0 78 -28 140 -101 140c-66 0 -110 -56 -117 -140z" />
    <glyph glyph-name="igrave" unicode="&#xec;" horiz-adv-x="222" 
d="M66 651l83 -115l-68 4l-106 115zM70 0v478h82v-478h-82z" />
    <glyph glyph-name="iacute" unicode="&#xed;" horiz-adv-x="222" 
d="M140 540l-68 -4l83 115l91 4zM70 0v478h82v-478h-82z" />
    <glyph glyph-name="icircumflex" unicode="&#xee;" horiz-adv-x="222" 
d="M227 539h-64l-53 75l-53 -75h-63l87 116h59zM70 0v478h82v-478h-82z" />
    <glyph glyph-name="idieresis" unicode="&#xef;" horiz-adv-x="222" 
d="M33 627c25 0 46 -21 46 -46s-21 -46 -46 -46s-46 21 -46 46s21 46 46 46zM189 627c25 0 46 -21 46 -46s-21 -46 -46 -46s-46 21 -46 46s21 46 46 46zM70 0v478h82v-478h-82z" />
    <glyph glyph-name="ntilde" unicode="&#xf1;" horiz-adv-x="523" 
d="M384 631v-9c0 -44 -23 -66 -57 -66c-19 0 -39 6 -61 12c-21 7 -35 11 -44 11c-14 0 -20 -11 -20 -24h-38v9c0 44 23 66 57 66c19 0 39 -6 61 -13c21 -6 35 -10 44 -10c14 0 20 11 20 24h38zM144 478l6 -90c27 70 90 100 148 100c103 0 159 -71 159 -169v-319h-82v295
c0 68 -31 121 -106 121c-64 0 -117 -66 -117 -149v-267h-82v478h74z" />
    <glyph glyph-name="ograve" unicode="&#xf2;" horiz-adv-x="520" 
d="M215 651l83 -115l-68 4l-106 115zM260 488c136 0 222 -100 222 -249s-86 -249 -222 -249s-222 100 -222 249s86 249 222 249zM260 422c-87 0 -132 -80 -132 -183s45 -183 132 -183s132 80 132 183s-45 183 -132 183z" />
    <glyph glyph-name="oacute" unicode="&#xf3;" horiz-adv-x="520" 
d="M289 540l-68 -4l83 115l91 4zM260 488c136 0 222 -100 222 -249s-86 -249 -222 -249s-222 100 -222 249s86 249 222 249zM260 422c-87 0 -132 -80 -132 -183s45 -183 132 -183s132 80 132 183s-45 183 -132 183z" />
    <glyph glyph-name="ocircumflex" unicode="&#xf4;" horiz-adv-x="520" 
d="M377 539h-64l-53 75l-53 -75h-63l87 116h59zM260 488c136 0 222 -100 222 -249s-86 -249 -222 -249s-222 100 -222 249s86 249 222 249zM260 422c-87 0 -132 -80 -132 -183s45 -183 132 -183s132 80 132 183s-45 183 -132 183z" />
    <glyph glyph-name="otilde" unicode="&#xf5;" horiz-adv-x="520" 
d="M370 631v-9c0 -44 -23 -66 -57 -66c-19 0 -39 6 -61 12c-21 7 -35 11 -44 11c-14 0 -20 -11 -20 -24h-38v9c0 44 23 66 57 66c19 0 39 -6 61 -13c21 -6 35 -10 44 -10c14 0 20 11 20 24h38zM260 488c136 0 222 -100 222 -249s-86 -249 -222 -249s-222 100 -222 249
s86 249 222 249zM260 422c-87 0 -132 -80 -132 -183s45 -183 132 -183s132 80 132 183s-45 183 -132 183z" />
    <glyph glyph-name="odieresis" unicode="&#xf6;" horiz-adv-x="520" 
d="M182 627c25 0 46 -21 46 -46s-21 -46 -46 -46s-46 21 -46 46s21 46 46 46zM338 627c25 0 46 -21 46 -46s-21 -46 -46 -46s-46 21 -46 46s21 46 46 46zM260 488c136 0 222 -100 222 -249s-86 -249 -222 -249s-222 100 -222 249s86 249 222 249zM260 422
c-87 0 -132 -80 -132 -183s45 -183 132 -183s132 80 132 183s-45 183 -132 183z" />
    <glyph glyph-name="oslash" unicode="&#xf8;" horiz-adv-x="520" 
d="M502 472l-64 -73c28 -41 44 -96 44 -160c0 -149 -86 -249 -222 -249c-57 0 -105 18 -142 49l-60 -68l-40 35l64 73c-28 41 -44 96 -44 160c0 149 86 249 222 249c57 0 105 -18 142 -49l60 68zM143 147l207 234c-22 26 -52 41 -90 41c-87 0 -132 -80 -132 -183
c0 -34 5 -65 15 -92zM377 331l-207 -234c22 -26 52 -41 90 -41c87 0 132 80 132 183c0 34 -5 65 -15 92z" />
    <glyph glyph-name="ugrave" unicode="&#xf9;" horiz-adv-x="523" 
d="M215 651l83 -115l-68 4l-106 115zM453 0h-74l-6 90c-27 -70 -90 -100 -148 -100c-103 0 -159 71 -159 169v319h82v-295c0 -68 31 -121 106 -121c64 0 117 66 117 149v267h82v-478z" />
    <glyph glyph-name="uacute" unicode="&#xfa;" horiz-adv-x="523" 
d="M289 540l-68 -4l83 115l91 4zM453 0h-74l-6 90c-27 -70 -90 -100 -148 -100c-103 0 -159 71 -159 169v319h82v-295c0 -68 31 -121 106 -121c64 0 117 66 117 149v267h82v-478z" />
    <glyph glyph-name="ucircumflex" unicode="&#xfb;" horiz-adv-x="523" 
d="M377 539h-64l-53 75l-53 -75h-63l87 116h59zM453 0h-74l-6 90c-27 -70 -90 -100 -148 -100c-103 0 -159 71 -159 169v319h82v-295c0 -68 31 -121 106 -121c64 0 117 66 117 149v267h82v-478z" />
    <glyph glyph-name="udieresis" unicode="&#xfc;" horiz-adv-x="523" 
d="M182 627c25 0 46 -21 46 -46s-21 -46 -46 -46s-46 21 -46 46s21 46 46 46zM338 627c25 0 46 -21 46 -46s-21 -46 -46 -46s-46 21 -46 46s21 46 46 46zM453 0h-74l-6 90c-27 -70 -90 -100 -148 -100c-103 0 -159 71 -159 169v319h82v-295c0 -68 31 -121 106 -121
c64 0 117 66 117 149v267h82v-478z" />
    <glyph glyph-name="yacute" unicode="&#xfd;" horiz-adv-x="455" 
d="M259 540l-68 -4l83 115l91 4zM452 478l-177 -478c-40 -109 -115 -188 -210 -215l-29 70c73 26 127 69 151 137l-179 486h94l130 -400l131 400h89z" />
    <glyph glyph-name="ydieresis" unicode="&#xff;" horiz-adv-x="455" 
d="M152 627c25 0 46 -21 46 -46s-21 -46 -46 -46s-46 21 -46 46s21 46 46 46zM308 627c25 0 46 -21 46 -46s-21 -46 -46 -46s-46 21 -46 46s21 46 46 46zM452 478l-177 -478c-40 -109 -115 -188 -210 -215l-29 70c73 26 127 69 151 137l-179 486h94l130 -400l131 400h89z
" />
    <glyph glyph-name="Abreve" unicode="&#x102;" horiz-adv-x="596" 
d="M194 855h45c4 -44 26 -69 60 -69s56 25 60 69h45c0 -61 -31 -116 -105 -116c-75 0 -105 55 -105 116zM173 227l-73 -227h-87l233 688h106l233 -688h-90l-73 227h-249zM297 615l-101 -316h203z" />
    <glyph glyph-name="abreve" unicode="&#x103;" horiz-adv-x="471" 
d="M140 653h45c4 -44 26 -69 60 -69s56 25 60 69h45c0 -61 -31 -116 -105 -116c-75 0 -105 55 -105 116zM92 384l-5 68c39 22 94 36 148 36c121 0 170 -65 170 -171v-317h-72l-9 71c-28 -52 -74 -81 -137 -81c-72 0 -140 46 -140 139c0 109 94 164 209 164c23 0 49 -2 67 -6
v37c0 64 -38 96 -108 96c-36 0 -83 -12 -123 -36zM323 185v41c-16 4 -38 6 -59 6c-77 0 -129 -40 -129 -98c0 -49 32 -80 78 -80c57 0 110 52 110 131z" />
    <glyph glyph-name="Gbreve" unicode="&#x11e;" horiz-adv-x="653" 
d="M257 855h45c4 -44 26 -69 60 -69s56 25 60 69h45c0 -61 -31 -116 -105 -116c-75 0 -105 55 -105 116zM588 331v-302c-56 -24 -152 -39 -216 -39c-199 0 -328 125 -328 349c0 243 179 359 357 359c77 0 152 -16 194 -44l-6 -77c-53 31 -118 50 -198 50
c-130 0 -255 -93 -255 -280c0 -192 101 -285 245 -285c35 0 90 7 125 21v176h-147v72h229z" />
    <glyph glyph-name="gbreve" unicode="&#x11f;" horiz-adv-x="543" 
d="M159 653h45c4 -44 26 -69 60 -69s56 25 60 69h45c0 -61 -31 -116 -105 -116c-75 0 -105 55 -105 116zM473 478v-431c0 -179 -103 -262 -260 -262c-45 0 -95 11 -137 38l5 74c42 -28 96 -44 138 -44c105 0 172 59 172 187v43c-29 -56 -81 -93 -148 -93
c-122 0 -205 98 -205 243c0 150 91 255 218 255c68 0 122 -40 138 -91l5 81h74zM391 208v52c0 90 -56 159 -128 159c-77 0 -135 -70 -135 -182c0 -96 46 -176 132 -176c66 0 131 64 131 147z" />
    <glyph glyph-name="Idotaccent" unicode="&#x130;" horiz-adv-x="234" 
d="M117 847c28 0 51 -23 51 -51s-23 -51 -51 -51s-51 23 -51 51s23 51 51 51zM76 0v688h82v-688h-82z" />
    <glyph glyph-name="dotlessi" unicode="&#x131;" horiz-adv-x="222" 
d="M152 0h-82v478h82v-478z" />
    <glyph glyph-name="IJ" unicode="&#x132;" horiz-adv-x="467" 
d="M76 0v688h82v-688h-82zM399 688v-543c0 -197 -80 -294 -237 -359l-33 71c128 54 188 120 188 286v545h82z" />
    <glyph glyph-name="ij" unicode="&#x133;" horiz-adv-x="460" 
d="M111 653c28 0 51 -23 51 -51s-23 -51 -51 -51s-51 23 -51 51s23 51 51 51zM349 653c28 0 51 -23 51 -51s-23 -51 -51 -51s-51 23 -51 51s23 51 51 51zM70 478h82v-478h-82v478zM390 478v-351c0 -192 -73 -276 -186 -340l-43 63c101 59 147 124 147 272v356h82z" />
    <glyph glyph-name="OE" unicode="&#x152;" horiz-adv-x="989" 
d="M950 72v-72h-370v115c-48 -81 -127 -125 -226 -125c-188 0 -318 137 -318 354s130 354 318 354c99 0 178 -44 226 -125v111h366v-72h-284v-229h252v-72h-252v-239h288zM354 62c121 0 226 92 226 282s-105 282 -226 282s-226 -92 -226 -282s105 -282 226 -282z" />
    <glyph glyph-name="oe" unicode="&#x153;" horiz-adv-x="824" 
d="M750 91l4 -68c-36 -20 -89 -33 -145 -33c-80 0 -143 36 -178 104c-33 -65 -91 -104 -171 -104c-136 0 -222 100 -222 249s86 249 222 249c81 0 141 -40 173 -108c35 69 96 108 173 108c124 0 175 -106 175 -236c0 -15 -1 -25 -4 -41h-299c5 -108 55 -155 151 -155
c42 0 87 14 121 35zM260 56c87 0 132 73 132 176s-45 190 -132 190s-132 -80 -132 -183s45 -183 132 -183zM480 278h218c0 78 -28 140 -101 140c-66 0 -110 -56 -117 -140z" />
    <glyph glyph-name="Scedilla" unicode="&#x15e;" horiz-adv-x="496" 
d="M435 663l-10 -78c-30 22 -82 41 -134 41c-71 0 -131 -47 -131 -112s40 -106 121 -136c113 -42 165 -98 165 -189c0 -101 -72 -179 -186 -196l-11 -19c43 -7 69 -29 69 -67c0 -50 -40 -75 -109 -75c-17 0 -38 4 -54 13l5 39c16 -9 36 -14 58 -14c26 0 42 14 42 34
c0 24 -17 38 -73 38l26 48h-1c-57 0 -118 13 -166 41l10 78c50 -33 116 -47 163 -47c81 0 137 50 137 114c0 59 -35 97 -115 128c-99 38 -168 93 -168 195c0 123 92 199 225 199c48 0 108 -16 137 -35z" />
    <glyph glyph-name="scedilla" unicode="&#x15f;" horiz-adv-x="369" 
d="M324 465l-5 -70c-25 15 -63 25 -106 25c-46 0 -80 -27 -80 -65c0 -47 30 -67 70 -80c91 -29 131 -69 131 -141c0 -75 -55 -123 -130 -139l-12 -21c43 -7 69 -29 69 -67c0 -50 -40 -75 -109 -75c-17 0 -38 4 -54 13l5 39c16 -9 36 -14 58 -14c26 0 42 14 42 34
c0 24 -17 38 -73 38l26 48h-7c-42 0 -78 7 -116 22l5 69c44 -17 76 -23 112 -23c56 0 101 26 101 70c0 38 -24 57 -75 76c-82 31 -127 66 -127 142c0 100 82 142 168 142c38 0 82 -10 107 -23z" />
    <glyph glyph-name="Wcircumflex" unicode="&#x174;" horiz-adv-x="859" 
d="M552 741h-64l-53 75l-53 -75h-63l87 116h59zM104 688l106 -430c16 -67 27 -120 38 -180c9 60 22 120 36 180l104 426h95l104 -426c15 -60 26 -120 34 -181c10 61 24 121 39 181l108 430h89l-188 -688h-104l-98 418c-14 60 -26 120 -35 180c-9 -60 -20 -120 -34 -180
l-98 -418h-105l-185 688h94z" />
    <glyph glyph-name="wcircumflex" unicode="&#x175;" horiz-adv-x="655" 
d="M447 539h-64l-53 75l-53 -75h-63l87 116h59zM420 0l-46 178c-16 60 -31 120 -44 197c-11 -77 -26 -137 -42 -197l-47 -178h-93l-140 478h92l58 -220c16 -60 28 -120 37 -188c9 68 23 128 39 188l57 216h84l56 -216c16 -60 29 -120 38 -188c9 68 23 128 39 188l58 220h86
l-140 -478h-92z" />
    <glyph glyph-name="Ycircumflex" unicode="&#x176;" horiz-adv-x="530" 
d="M393 741h-64l-53 75l-53 -75h-63l87 116h59zM317 0h-82v296l-227 392h101l170 -321l172 321h93l-227 -392v-296z" />
    <glyph glyph-name="ycircumflex" unicode="&#x177;" horiz-adv-x="455" 
d="M346 539h-64l-53 75l-53 -75h-63l87 116h59zM452 478l-177 -478c-40 -109 -115 -188 -210 -215l-29 70c73 26 127 69 151 137l-179 486h94l130 -400l131 400h89z" />
    <glyph glyph-name="Ydieresis" unicode="&#x178;" horiz-adv-x="530" 
d="M198 829c25 0 46 -21 46 -46s-21 -46 -46 -46s-46 21 -46 46s21 46 46 46zM354 829c25 0 46 -21 46 -46s-21 -46 -46 -46s-46 21 -46 46s21 46 46 46zM317 0h-82v296l-227 392h101l170 -321l172 321h93l-227 -392v-296z" />
    <glyph glyph-name="circumflex" unicode="&#x2c6;" horiz-adv-x="500" 
d="M367 539h-64l-53 75l-53 -75h-63l87 116h59z" />
    <glyph glyph-name="breve" unicode="&#x2d8;" horiz-adv-x="500" 
d="M145 653h45c4 -44 26 -69 60 -69s56 25 60 69h45c0 -61 -31 -116 -105 -116c-75 0 -105 55 -105 116z" />
    <glyph glyph-name="ring" unicode="&#x2da;" horiz-adv-x="500" 
d="M250 675c45 0 78 -28 78 -73s-33 -73 -78 -73s-78 28 -78 73s33 73 78 73zM250 644c-19 0 -34 -15 -34 -42c0 -28 15 -42 34 -42s34 14 34 42c0 27 -15 42 -34 42z" />
    <glyph glyph-name="tilde" unicode="&#x2dc;" horiz-adv-x="500" 
d="M360 631v-9c0 -44 -23 -66 -57 -66c-19 0 -39 6 -61 12c-21 7 -35 11 -44 11c-14 0 -20 -11 -20 -24h-38v9c0 44 23 66 57 66c19 0 39 -6 61 -13c21 -6 35 -10 44 -10c14 0 20 11 20 24h38z" />
    <glyph glyph-name="Wgrave" unicode="&#x1e80;" horiz-adv-x="859" 
d="M390 853l83 -115l-68 4l-106 115zM104 688l106 -430c16 -67 27 -120 38 -180c9 60 22 120 36 180l104 426h95l104 -426c15 -60 26 -120 34 -181c10 61 24 121 39 181l108 430h89l-188 -688h-104l-98 418c-14 60 -26 120 -35 180c-9 -60 -20 -120 -34 -180l-98 -418h-105
l-185 688h94z" />
    <glyph glyph-name="wgrave" unicode="&#x1e81;" horiz-adv-x="655" 
d="M285 651l83 -115l-68 4l-106 115zM420 0l-46 178c-16 60 -31 120 -44 197c-11 -77 -26 -137 -42 -197l-47 -178h-93l-140 478h92l58 -220c16 -60 28 -120 37 -188c9 68 23 128 39 188l57 216h84l56 -216c16 -60 29 -120 38 -188c9 68 23 128 39 188l58 220h86l-140 -478
h-92z" />
    <glyph glyph-name="Wacute" unicode="&#x1e82;" horiz-adv-x="859" 
d="M464 742l-68 -4l83 115l91 4zM104 688l106 -430c16 -67 27 -120 38 -180c9 60 22 120 36 180l104 426h95l104 -426c15 -60 26 -120 34 -181c10 61 24 121 39 181l108 430h89l-188 -688h-104l-98 418c-14 60 -26 120 -35 180c-9 -60 -20 -120 -34 -180l-98 -418h-105
l-185 688h94z" />
    <glyph glyph-name="wacute" unicode="&#x1e83;" horiz-adv-x="655" 
d="M359 540l-68 -4l83 115l91 4zM420 0l-46 178c-16 60 -31 120 -44 197c-11 -77 -26 -137 -42 -197l-47 -178h-93l-140 478h92l58 -220c16 -60 28 -120 37 -188c9 68 23 128 39 188l57 216h84l56 -216c16 -60 29 -120 38 -188c9 68 23 128 39 188l58 220h86l-140 -478h-92z
" />
    <glyph glyph-name="Wdieresis" unicode="&#x1e84;" horiz-adv-x="859" 
d="M357 829c25 0 46 -21 46 -46s-21 -46 -46 -46s-46 21 -46 46s21 46 46 46zM513 829c25 0 46 -21 46 -46s-21 -46 -46 -46s-46 21 -46 46s21 46 46 46zM104 688l106 -430c16 -67 27 -120 38 -180c9 60 22 120 36 180l104 426h95l104 -426c15 -60 26 -120 34 -181
c10 61 24 121 39 181l108 430h89l-188 -688h-104l-98 418c-14 60 -26 120 -35 180c-9 -60 -20 -120 -34 -180l-98 -418h-105l-185 688h94z" />
    <glyph glyph-name="wdieresis" unicode="&#x1e85;" horiz-adv-x="655" 
d="M252 627c25 0 46 -21 46 -46s-21 -46 -46 -46s-46 21 -46 46s21 46 46 46zM408 627c25 0 46 -21 46 -46s-21 -46 -46 -46s-46 21 -46 46s21 46 46 46zM420 0l-46 178c-16 60 -31 120 -44 197c-11 -77 -26 -137 -42 -197l-47 -178h-93l-140 478h92l58 -220
c16 -60 28 -120 37 -188c9 68 23 128 39 188l57 216h84l56 -216c16 -60 29 -120 38 -188c9 68 23 128 39 188l58 220h86l-140 -478h-92z" />
    <glyph glyph-name="Ygrave" unicode="&#x1ef2;" horiz-adv-x="530" 
d="M231 853l83 -115l-68 4l-106 115zM317 0h-82v296l-227 392h101l170 -321l172 321h93l-227 -392v-296z" />
    <glyph glyph-name="ygrave" unicode="&#x1ef3;" horiz-adv-x="455" 
d="M185 651l83 -115l-68 4l-106 115zM452 478l-177 -478c-40 -109 -115 -188 -210 -215l-29 70c73 26 127 69 151 137l-179 486h94l130 -400l131 400h89z" />
    <glyph glyph-name="endash" unicode="&#x2013;" horiz-adv-x="500" 
d="M444 246h-388v48h388v-48z" />
    <glyph glyph-name="emdash" unicode="&#x2014;" horiz-adv-x="1000" 
d="M944 246h-888v48h888v-48z" />
    <glyph glyph-name="quoteleft" unicode="&#x2018;" horiz-adv-x="212" 
d="M100 467l-80 -4l117 267l57 5z" />
    <glyph glyph-name="quoteright" unicode="&#x2019;" horiz-adv-x="217" 
d="M84 468l-57 -5l94 268l80 4z" />
    <glyph glyph-name="quotedblleft" unicode="&#x201c;" horiz-adv-x="342" 
d="M100 467l-80 -4l117 267l57 5zM230 467l-80 -4l117 267l57 5z" />
    <glyph glyph-name="quotedblright" unicode="&#x201d;" horiz-adv-x="347" 
d="M84 468l-57 -5l94 268l80 4zM214 468l-57 -5l94 268l80 4z" />
    <glyph glyph-name="quotedblbase" unicode="&#x201e;" horiz-adv-x="374" 
d="M42 -142l-65 -5l74 248l98 4zM192 -142l-65 -5l74 248l98 4z" />
    <glyph glyph-name="ellipsis" unicode="&#x2026;" horiz-adv-x="684" 
d="M101 110c33 0 60 -27 60 -60s-27 -60 -60 -60s-60 27 -60 60s27 60 60 60zM331 110c33 0 60 -27 60 -60s-27 -60 -60 -60s-60 27 -60 60s27 60 60 60zM561 110c33 0 60 -27 60 -60s-27 -60 -60 -60s-60 27 -60 60s27 60 60 60z" />
    <glyph glyph-name="guilsinglleft" unicode="&#x2039;" horiz-adv-x="286" 
d="M117 252l119 -169h-72l-119 169l119 169h72z" />
    <glyph glyph-name="guilsinglright" unicode="&#x203a;" horiz-adv-x="286" 
d="M241 252l-119 -169h-72l119 169l-119 169h72z" />
    <glyph glyph-name="Euro" unicode="&#x20ac;" 
d="M65 408h24c19 167 106 264 264 264c53 0 94 -12 115 -29l-6 -77c-29 25 -69 34 -114 34c-105 0 -157 -67 -170 -192h206l-5 -54h-204c-1 -15 -1 -49 0 -68h198l-4 -54h-188c15 -109 63 -170 164 -170c47 0 85 15 112 36l7 -74c-37 -25 -73 -34 -131 -34
c-145 0 -227 89 -244 242h-36l4 54h28c-1 18 -1 51 0 68h-24z" />
    </font>
</defs>
</svg>
